<svg width="116" height="32" viewBox="0 0 116 32" fill="none" xmlns="http://www.w3.org/2000/svg">
<path fill-rule="evenodd" clip-rule="evenodd" d="M63.3994 12.5023H53.8798V0H63.3101V2.44688H56.6125V4.98307H62.5064V7.42995H56.6125V10.0554H63.3994V12.5023ZM46.3003 10.8229C46.5265 10.3406 46.6396 9.78996 46.6396 9.17079V9.13507C46.6396 8.58735 46.5533 8.11703 46.3806 7.72409C46.208 7.33116 45.952 6.98884 45.6127 6.69712C45.2733 6.40539 44.8566 6.15535 44.3624 5.94698C43.8683 5.7386 43.3057 5.55107 42.6746 5.38437C42.1388 5.24149 41.6953 5.11647 41.344 5.0093C40.9927 4.90214 40.7159 4.78902 40.5135 4.66995C40.3111 4.55088 40.1712 4.41693 40.0938 4.26809C40.0164 4.11926 39.9777 3.94363 39.9777 3.74121V3.70549C39.9777 3.39591 40.1116 3.13693 40.3795 2.92856C40.6474 2.72019 41.0493 2.616 41.5851 2.616C42.1209 2.616 42.6567 2.72614 43.1926 2.94642C43.7284 3.1667 44.2761 3.46735 44.8357 3.84837L46.2646 1.77656C45.6216 1.26456 44.9161 0.871629 44.1481 0.597767C43.3801 0.323906 42.5377 0.186977 41.6208 0.186977C40.9779 0.186977 40.3885 0.276278 39.8526 0.454884C39.3168 0.633489 38.8554 0.889487 38.4685 1.22288C38.0815 1.55628 37.7808 1.95218 37.5665 2.4106C37.3522 2.86903 37.245 3.384 37.245 3.95553V3.99126C37.245 4.61042 37.3433 5.12837 37.5397 5.54512C37.7362 5.96186 38.013 6.31014 38.3702 6.58995C38.7274 6.86977 39.162 7.10493 39.674 7.29544C40.1861 7.48595 40.7576 7.6586 41.3887 7.8134C41.9126 7.94437 42.3382 8.0694 42.6657 8.18847C42.9931 8.30754 43.2491 8.4266 43.4337 8.54567C43.6182 8.66475 43.7433 8.79274 43.8087 8.92967C43.8742 9.06661 43.907 9.22437 43.907 9.40298V9.4387C43.907 9.80782 43.7492 10.0966 43.4337 10.3049C43.1181 10.5133 42.6746 10.6175 42.1031 10.6175C41.3886 10.6175 40.7308 10.4806 40.1295 10.2067C39.5282 9.93284 38.9418 9.56372 38.3702 9.09935L36.7449 11.0461C37.4951 11.7248 38.3286 12.2279 39.2454 12.5553C40.1622 12.8828 41.0969 13.0465 42.0495 13.0465C42.7282 13.0465 43.3473 12.9602 43.907 12.7875C44.4666 12.6149 44.9488 12.3648 45.3537 12.0374C45.7585 11.71 46.074 11.3051 46.3003 10.8229ZM28.035 12.8679H30.9105L25.5524 0.276279H23.0162L17.658 12.8679H20.4621L21.6052 10.0638H26.8919L28.035 12.8679ZM11.3682 10.939C11.5885 10.5103 11.6986 10.0102 11.6986 9.4387V9.40298C11.6986 8.56948 11.4902 7.91758 11.0735 7.44726C10.6567 6.97693 10.0852 6.60484 9.35888 6.33098C9.58512 6.21191 9.79646 6.06902 9.99293 5.90233C10.1894 5.73563 10.362 5.54214 10.5109 5.32186C10.6597 5.10158 10.7788 4.85451 10.8681 4.58065C10.9574 4.30679 11.002 3.99126 11.002 3.63405V3.59833C11.002 2.61004 10.6359 1.82419 9.90363 1.24074C9.17134 0.657299 8.16224 0.365581 6.87628 0.365581H1.07163V12.8679H7.01916C7.72168 12.8679 8.36167 12.7965 8.93916 12.6536C9.51665 12.5107 10.0108 12.2964 10.4216 12.0106C10.8324 11.7248 11.1479 11.3676 11.3682 10.939ZM8.26939 4.0627V4.09842C8.26939 4.56279 8.09079 4.89916 7.73358 5.10753C7.37637 5.31591 6.89414 5.42009 6.28688 5.42009H3.7507V2.77674H6.46549C7.04893 2.77674 7.49544 2.88688 7.80502 3.10716C8.11461 3.32744 8.26939 3.64595 8.26939 4.0627ZM8.96595 9.09935V9.06363C8.96595 8.64688 8.80521 8.31647 8.48372 8.07237C8.16223 7.82828 7.64428 7.70623 6.92986 7.70623H3.7507V10.4567H7.01916C7.62642 10.4567 8.1027 10.3466 8.448 10.1263C8.7933 9.90605 8.96595 9.56372 8.96595 9.09935ZM25.9096 7.63479L24.2486 3.58047L22.5875 7.63479H25.9096ZM13.2525 31.5023H10.3769L9.23386 28.6982H3.94716L2.80409 31.5023H0L5.35814 18.9107H7.89433L13.2525 31.5023ZM8.25153 26.2692L6.59051 22.2149L4.92949 26.2692H8.25153ZM29.446 25.269C29.7079 24.7213 29.8389 24.0843 29.8389 23.358V23.3222C29.8389 22.6793 29.7287 22.0928 29.5085 21.563C29.2882 21.0331 28.9727 20.5777 28.5619 20.1967C28.1511 19.8156 27.651 19.5209 27.0616 19.3126C26.4722 19.1042 25.8024 19 25.0523 19H19.9442V31.5023H22.6947V27.7516H24.7844C25.4869 27.7516 26.1447 27.6593 26.758 27.4748C27.3712 27.2902 27.907 27.0134 28.3654 26.6443C28.8238 26.2752 29.184 25.8167 29.446 25.269ZM27.0527 23.4115V23.3758C27.0527 22.7566 26.8532 22.2863 26.4543 21.9648C26.0554 21.6433 25.5107 21.4826 24.8201 21.4826H22.6947V25.3047H24.8737C25.5643 25.3047 26.1001 25.1232 26.4811 24.76C26.8621 24.3968 27.0527 23.9474 27.0527 23.4115ZM46.1395 25.269C46.4015 24.7213 46.5325 24.0843 46.5325 23.358V23.3222C46.5325 22.6793 46.4223 22.0928 46.202 21.563C45.9818 21.0331 45.6662 20.5777 45.2554 20.1967C44.8447 19.8156 44.3446 19.5209 43.7552 19.3126C43.1658 19.1042 42.496 19 41.7459 19H36.6378V31.5023H39.3883V27.7516H41.478C42.1805 27.7516 42.8383 27.6593 43.4515 27.4748C44.0647 27.2902 44.6006 27.0134 45.059 26.6443C45.5174 26.2752 45.8776 25.8167 46.1395 25.269ZM43.7462 23.4115V23.3758C43.7462 22.7566 43.5468 22.2863 43.1479 21.9648C42.749 21.6433 42.2043 21.4826 41.5137 21.4826H39.3883V25.3047H41.5673C42.2579 25.3047 42.7937 25.1232 43.1747 24.76C43.5557 24.3968 43.7462 23.9474 43.7462 23.4115ZM62.6367 31.5023H65.5122L60.154 18.9107H57.6179L52.2597 31.5023H55.0638L56.2069 28.6982H61.4936L62.6367 31.5023ZM60.5113 26.2692L58.8502 22.2149L57.1892 26.2692H60.5113ZM79.7946 31.5023H83.0095L79.9553 27.0372C80.7531 26.7395 81.3991 26.2722 81.8932 25.6352C82.3873 24.9981 82.6344 24.1736 82.6344 23.1615V23.1258C82.6344 21.8279 82.2206 20.8158 81.3931 20.0895C80.5656 19.3632 79.4076 19 77.9193 19H72.2039V31.5023H74.9544V27.5016H77.1155L79.7946 31.5023ZM79.8482 23.3044V23.2687C79.8482 22.6733 79.6577 22.2268 79.2767 21.9291C78.8956 21.6314 78.3658 21.4826 77.6871 21.4826H74.9544V25.0726H77.7407C78.4194 25.0726 78.9403 24.9118 79.3034 24.5903C79.6666 24.2688 79.8482 23.8402 79.8482 23.3044ZM89.8798 31.5023H99.3994V29.0554H92.6125V26.43H98.5064V23.9831H92.6125V21.4469H99.3101V19H89.8798V31.5023ZM115.593 31.5023H106.609V19H109.36V29.0019H115.593V31.5023Z" fill="#423A3A"/>
</svg>
